<?xml version="1.0" standalone="no"?>
<!DOCTYPE svg PUBLIC "-//W3C//DTD SVG 1.1//EN" "http://www.w3.org/Graphics/SVG/1.1/DTD/svg11.dtd" >
<svg xmlns="http://www.w3.org/2000/svg" xmlns:xlink="http://www.w3.org/1999/xlink" version="1.1">
<metadata>
Created by FontForge 20180930 at Mon Oct  8 19:03:28 2018
 By root
Copyright Quentin Fan-Chiang 2016
</metadata>
<defs>
<font id="Scientific-Calculator-LCD" horiz-adv-x="4681" >
  <font-face 
    font-family="Scientific Calculator LCD"
    font-weight="400"
    font-stretch="normal"
    units-per-em="4096"
    panose-1="0 0 4 0 0 0 0 0 0 0"
    ascent="4681"
    descent="585"
    x-height="3452"
    cap-height="4622"
    bbox="58 643 3452 4622"
    underline-thickness="204"
    underline-position="307"
    unicode-range="U+0020-201D"
  />
    <missing-glyph />
    <glyph glyph-name="space" unicode=" " horiz-adv-x="585" 
 />
    <glyph glyph-name="exclam" unicode="!" horiz-adv-x="3510" 
d="M1813 643v468h469v-468h-469zM1813 1813v469h469v-469h-469zM1813 2399v468h469v-468h-469zM1813 2984v468h469v-468h-469zM1813 3569v468h469v-468h-469zM1813 4154v468h469v-468h-469z" />
    <glyph glyph-name="percent" unicode="%" 
d="M2399 643v468h468v-468h-468zM2984 643v468h468v-468h-468zM643 1228v468h468v-468h-468zM2399 1228v468h468v-468h-468zM2984 1228v468h468v-468h-468zM1228 1813v469h468v-469h-468zM1813 2399v468h469v-468h-469zM2399 2984v468h468v-468h-468zM643 3569v468h468v-468
h-468zM1228 3569v468h468v-468h-468zM2984 3569v468h468v-468h-468zM643 4154v468h468v-468h-468zM1228 4154v468h468v-468h-468z" />
    <glyph glyph-name="parenleft" unicode="(" horiz-adv-x="4095" 
d="M2399 643v468h468v-468h-468zM1813 1228v468h469v-468h-469zM1228 1813v469h468v-469h-468zM1228 2399v468h468v-468h-468zM1228 2984v468h468v-468h-468zM1813 3569v468h469v-468h-469zM2399 4154v468h468v-468h-468z" />
    <glyph glyph-name="parenright" unicode=")" horiz-adv-x="4095" 
d="M1228 643v468h468v-468h-468zM1813 1228v468h469v-468h-469zM2399 1813v469h468v-469h-468zM2399 2399v468h468v-468h-468zM2399 2984v468h468v-468h-468zM1813 3569v468h469v-468h-469zM1228 4154v468h468v-468h-468z" />
    <glyph glyph-name="plus" unicode="+" 
d="M1813 1228v468h469v-468h-469zM1813 1813v469h469v-469h-469zM643 2399v468h468v-468h-468zM1228 2399v468h468v-468h-468zM1813 2399v468h469v-468h-469zM2399 2399v468h468v-468h-468zM2984 2399v468h468v-468h-468zM1813 2984v468h469v-468h-469zM1813 3569v468h469
v-468h-469z" />
    <glyph glyph-name="comma" unicode="," horiz-adv-x="3510" 
d="M1228 643v468h468v-468h-468zM1813 1228v468h469v-468h-469zM1228 1813v469h468v-469h-468zM1813 1813v469h469v-469h-469z" />
    <glyph glyph-name="hyphen" unicode="-" 
d="M643 2399v468h468v-468h-468zM1228 2399v468h468v-468h-468zM1813 2399v468h469v-468h-469zM2399 2399v468h468v-468h-468zM2984 2399v468h468v-468h-468z" />
    <glyph glyph-name="period" unicode="." horiz-adv-x="3510" 
d="M1228 643v468h468v-468h-468zM1813 643v468h469v-468h-469zM1228 1228v468h468v-468h-468zM1813 1228v468h469v-468h-469z" />
    <glyph glyph-name="slash" unicode="/" 
d="M643 1228v468h468v-468h-468zM1228 1813v469h468v-469h-468zM1813 2399v468h469v-468h-469zM2399 2984v468h468v-468h-468zM2984 3569v468h468v-468h-468z" />
    <glyph glyph-name="zero" unicode="0" 
d="M1228 643v468h468v-468h-468zM1813 643v468h469v-468h-469zM2399 643v468h468v-468h-468zM643 1228v468h468v-468h-468zM2984 1228v468h468v-468h-468zM643 1813v469h468v-469h-468zM1228 1813v469h468v-469h-468zM2984 1813v469h468v-469h-468zM643 2399v468h468v-468
h-468zM1813 2399v468h469v-468h-469zM2984 2399v468h468v-468h-468zM643 2984v468h468v-468h-468zM2399 2984v468h468v-468h-468zM2984 2984v468h468v-468h-468zM643 3569v468h468v-468h-468zM2984 3569v468h468v-468h-468zM1228 4154v468h468v-468h-468zM1813 4154v468h469
v-468h-469zM2399 4154v468h468v-468h-468z" />
    <glyph glyph-name="one" unicode="1" horiz-adv-x="4095" 
d="M1228 643v468h468v-468h-468zM1813 643v468h469v-468h-469zM2399 643v468h468v-468h-468zM1813 1228v468h469v-468h-469zM1813 1813v469h469v-469h-469zM1813 2399v468h469v-468h-469zM1813 2984v468h469v-468h-469zM1228 3569v468h468v-468h-468zM1813 3569v468h469
v-468h-469zM1813 4154v468h469v-468h-469z" />
    <glyph glyph-name="two" unicode="2" 
d="M643 643v468h468v-468h-468zM1228 643v468h468v-468h-468zM1813 643v468h469v-468h-469zM2399 643v468h468v-468h-468zM2984 643v468h468v-468h-468zM1228 1228v468h468v-468h-468zM1813 1813v469h469v-469h-469zM2399 2399v468h468v-468h-468zM2984 2984v468h468v-468
h-468zM643 3569v468h468v-468h-468zM2984 3569v468h468v-468h-468zM1228 4154v468h468v-468h-468zM1813 4154v468h469v-468h-469zM2399 4154v468h468v-468h-468z" />
    <glyph glyph-name="three" unicode="3" 
d="M1228 643v468h468v-468h-468zM1813 643v468h469v-468h-469zM2399 643v468h468v-468h-468zM643 1228v468h468v-468h-468zM2984 1228v468h468v-468h-468zM2984 1813v469h468v-469h-468zM2399 2399v468h468v-468h-468zM1813 2984v468h469v-468h-469zM2399 3569v468h468v-468
h-468zM643 4154v468h468v-468h-468zM1228 4154v468h468v-468h-468zM1813 4154v468h469v-468h-469zM2399 4154v468h468v-468h-468zM2984 4154v468h468v-468h-468z" />
    <glyph glyph-name="four" unicode="4" 
d="M2399 643v468h468v-468h-468zM2399 1228v468h468v-468h-468zM643 1813v469h468v-469h-468zM1228 1813v469h468v-469h-468zM1813 1813v469h469v-469h-469zM2399 1813v469h468v-469h-468zM2984 1813v469h468v-469h-468zM643 2399v468h468v-468h-468zM2399 2399v468h468
v-468h-468zM1228 2984v468h468v-468h-468zM2399 2984v468h468v-468h-468zM1813 3569v468h469v-468h-469zM2399 3569v468h468v-468h-468zM2399 4154v468h468v-468h-468z" />
    <glyph glyph-name="five" unicode="5" 
d="M1228 643v468h468v-468h-468zM1813 643v468h469v-468h-469zM2399 643v468h468v-468h-468zM643 1228v468h468v-468h-468zM2984 1228v468h468v-468h-468zM2984 1813v469h468v-469h-468zM2984 2399v468h468v-468h-468zM643 2984v468h468v-468h-468zM1228 2984v468h468v-468
h-468zM1813 2984v468h469v-468h-469zM2399 2984v468h468v-468h-468zM643 3569v468h468v-468h-468zM643 4154v468h468v-468h-468zM1228 4154v468h468v-468h-468zM1813 4154v468h469v-468h-469zM2399 4154v468h468v-468h-468zM2984 4154v468h468v-468h-468z" />
    <glyph glyph-name="six" unicode="6" 
d="M1228 643v468h468v-468h-468zM1813 643v468h469v-468h-469zM2399 643v468h468v-468h-468zM643 1228v468h468v-468h-468zM2984 1228v468h468v-468h-468zM643 1813v469h468v-469h-468zM2984 1813v469h468v-469h-468zM643 2399v468h468v-468h-468zM1228 2399v468h468v-468
h-468zM1813 2399v468h469v-468h-469zM2399 2399v468h468v-468h-468zM643 2984v468h468v-468h-468zM1228 3569v468h468v-468h-468zM1813 4154v468h469v-468h-469zM2399 4154v468h468v-468h-468z" />
    <glyph glyph-name="seven" unicode="7" 
d="M1813 643v468h469v-468h-469zM1813 1228v468h469v-468h-469zM1813 1813v469h469v-469h-469zM1813 2399v468h469v-468h-469zM2399 2984v468h468v-468h-468zM2984 3569v468h468v-468h-468zM643 4154v468h468v-468h-468zM1228 4154v468h468v-468h-468zM1813 4154v468h469
v-468h-469zM2399 4154v468h468v-468h-468zM2984 4154v468h468v-468h-468z" />
    <glyph glyph-name="eight" unicode="8" 
d="M1228 643v468h468v-468h-468zM1813 643v468h469v-468h-469zM2399 643v468h468v-468h-468zM643 1228v468h468v-468h-468zM2984 1228v468h468v-468h-468zM643 1813v469h468v-469h-468zM2984 1813v469h468v-469h-468zM1228 2399v468h468v-468h-468zM1813 2399v468h469v-468
h-469zM2399 2399v468h468v-468h-468zM643 2984v468h468v-468h-468zM2984 2984v468h468v-468h-468zM643 3569v468h468v-468h-468zM2984 3569v468h468v-468h-468zM1228 4154v468h468v-468h-468zM1813 4154v468h469v-468h-469zM2399 4154v468h468v-468h-468z" />
    <glyph glyph-name="nine" unicode="9" 
d="M1228 643v468h468v-468h-468zM1813 643v468h469v-468h-469zM2399 1228v468h468v-468h-468zM2984 1813v469h468v-469h-468zM1228 2399v468h468v-468h-468zM1813 2399v468h469v-468h-469zM2399 2399v468h468v-468h-468zM2984 2399v468h468v-468h-468zM643 2984v468h468
v-468h-468zM2984 2984v468h468v-468h-468zM643 3569v468h468v-468h-468zM2984 3569v468h468v-468h-468zM1228 4154v468h468v-468h-468zM1813 4154v468h469v-468h-469zM2399 4154v468h468v-468h-468z" />
    <glyph glyph-name="colon" unicode=":" horiz-adv-x="3510" 
d="M1228 1228v468h468v-468h-468zM1813 1228v468h469v-468h-469zM1228 1813v469h468v-469h-468zM1813 1813v469h469v-469h-469zM1228 2984v468h468v-468h-468zM1813 2984v468h469v-468h-469zM1228 3569v468h468v-468h-468zM1813 3569v468h469v-468h-469z" />
    <glyph glyph-name="semicolon" unicode=";" horiz-adv-x="3510" 
d="M1228 643v468h468v-468h-468zM1813 1228v468h469v-468h-469zM1228 1813v469h468v-469h-468zM1813 1813v469h469v-469h-469zM1228 2984v468h468v-468h-468zM1813 2984v468h469v-468h-469zM1228 3569v468h468v-468h-468zM1813 3569v468h469v-468h-469z" />
    <glyph glyph-name="less" unicode="&#x3c;" horiz-adv-x="4095" 
d="M2399 1228v468h468v-468h-468zM1813 1813v469h469v-469h-469zM1228 2399v468h468v-468h-468zM1813 2984v468h469v-468h-469zM2399 3569v468h468v-468h-468z" />
    <glyph glyph-name="equal" unicode="=" 
d="M643 1813v469h468v-469h-468zM1228 1813v469h468v-469h-468zM1813 1813v469h469v-469h-469zM2399 1813v469h468v-469h-468zM2984 1813v469h468v-469h-468zM643 2984v468h468v-468h-468zM1228 2984v468h468v-468h-468zM1813 2984v468h469v-468h-469zM2399 2984v468h468
v-468h-468zM2984 2984v468h468v-468h-468z" />
    <glyph glyph-name="greater" unicode="&#x3e;" horiz-adv-x="4095" 
d="M1228 1228v468h468v-468h-468zM1813 1813v469h469v-469h-469zM2399 2399v468h468v-468h-468zM1813 2984v468h469v-468h-469zM1228 3569v468h468v-468h-468z" />
    <glyph glyph-name="question" unicode="?" horiz-adv-x="4095" 
d="M1813 643v468h469v-468h-469zM1813 1813v469h469v-469h-469zM2399 2399v468h468v-468h-468zM2399 2984v468h468v-468h-468zM643 3569v468h468v-468h-468zM2399 3569v468h468v-468h-468zM1228 4154v468h468v-468h-468zM1813 4154v468h469v-468h-469z" />
    <glyph glyph-name="A" unicode="A" 
d="M643 643v468h468v-468h-468zM2984 643v468h468v-468h-468zM643 1228v468h468v-468h-468zM2984 1228v468h468v-468h-468zM643 1813v469h468v-469h-468zM2984 1813v469h468v-469h-468zM643 2399v468h468v-468h-468zM1228 2399v468h468v-468h-468zM1813 2399v468h469v-468
h-469zM2399 2399v468h468v-468h-468zM2984 2399v468h468v-468h-468zM643 2984v468h468v-468h-468zM2984 2984v468h468v-468h-468zM643 3569v468h468v-468h-468zM2984 3569v468h468v-468h-468zM1228 4154v468h468v-468h-468zM1813 4154v468h469v-468h-469zM2399 4154v468h468
v-468h-468z" />
    <glyph glyph-name="B" unicode="B" 
d="M643 643v468h468v-468h-468zM1228 643v468h468v-468h-468zM1813 643v468h469v-468h-469zM2399 643v468h468v-468h-468zM643 1228v468h468v-468h-468zM2984 1228v468h468v-468h-468zM643 1813v469h468v-469h-468zM2984 1813v469h468v-469h-468zM643 2399v468h468v-468
h-468zM1228 2399v468h468v-468h-468zM1813 2399v468h469v-468h-469zM2399 2399v468h468v-468h-468zM643 2984v468h468v-468h-468zM2984 2984v468h468v-468h-468zM643 3569v468h468v-468h-468zM2984 3569v468h468v-468h-468zM643 4154v468h468v-468h-468zM1228 4154v468h468
v-468h-468zM1813 4154v468h469v-468h-469zM2399 4154v468h468v-468h-468z" />
    <glyph glyph-name="C" unicode="C" 
d="M1228 643v468h468v-468h-468zM1813 643v468h469v-468h-469zM2399 643v468h468v-468h-468zM643 1228v468h468v-468h-468zM2984 1228v468h468v-468h-468zM643 1813v469h468v-469h-468zM643 2399v468h468v-468h-468zM643 2984v468h468v-468h-468zM643 3569v468h468v-468
h-468zM2984 3569v468h468v-468h-468zM1228 4154v468h468v-468h-468zM1813 4154v468h469v-468h-469zM2399 4154v468h468v-468h-468z" />
    <glyph glyph-name="D" unicode="D" 
d="M643 643v468h468v-468h-468zM1228 643v468h468v-468h-468zM1813 643v468h469v-468h-469zM643 1228v468h468v-468h-468zM2399 1228v468h468v-468h-468zM643 1813v469h468v-469h-468zM2984 1813v469h468v-469h-468zM643 2399v468h468v-468h-468zM2984 2399v468h468v-468
h-468zM643 2984v468h468v-468h-468zM2984 2984v468h468v-468h-468zM643 3569v468h468v-468h-468zM2399 3569v468h468v-468h-468zM643 4154v468h468v-468h-468zM1228 4154v468h468v-468h-468zM1813 4154v468h469v-468h-469z" />
    <glyph glyph-name="E" unicode="E" 
d="M643 643v468h468v-468h-468zM1228 643v468h468v-468h-468zM1813 643v468h469v-468h-469zM2399 643v468h468v-468h-468zM2984 643v468h468v-468h-468zM643 1228v468h468v-468h-468zM643 1813v469h468v-469h-468zM643 2399v468h468v-468h-468zM1228 2399v468h468v-468h-468
zM1813 2399v468h469v-468h-469zM2399 2399v468h468v-468h-468zM643 2984v468h468v-468h-468zM643 3569v468h468v-468h-468zM643 4154v468h468v-468h-468zM1228 4154v468h468v-468h-468zM1813 4154v468h469v-468h-469zM2399 4154v468h468v-468h-468zM2984 4154v468h468v-468
h-468z" />
    <glyph glyph-name="F" unicode="F" 
d="M643 643v468h468v-468h-468zM643 1228v468h468v-468h-468zM643 1813v469h468v-469h-468zM643 2399v468h468v-468h-468zM1228 2399v468h468v-468h-468zM1813 2399v468h469v-468h-469zM2399 2399v468h468v-468h-468zM643 2984v468h468v-468h-468zM643 3569v468h468v-468
h-468zM643 4154v468h468v-468h-468zM1228 4154v468h468v-468h-468zM1813 4154v468h469v-468h-469zM2399 4154v468h468v-468h-468zM2984 4154v468h468v-468h-468z" />
    <glyph glyph-name="G" unicode="G" 
d="M1228 643v468h468v-468h-468zM1813 643v468h469v-468h-469zM2399 643v468h468v-468h-468zM2984 643v468h468v-468h-468zM643 1228v468h468v-468h-468zM2984 1228v468h468v-468h-468zM643 1813v469h468v-469h-468zM2984 1813v469h468v-469h-468zM643 2399v468h468v-468
h-468zM1813 2399v468h469v-468h-469zM2399 2399v468h468v-468h-468zM2984 2399v468h468v-468h-468zM643 2984v468h468v-468h-468zM643 3569v468h468v-468h-468zM2984 3569v468h468v-468h-468zM1228 4154v468h468v-468h-468zM1813 4154v468h469v-468h-469zM2399 4154v468h468
v-468h-468z" />
    <glyph glyph-name="H" unicode="H" 
d="M643 643v468h468v-468h-468zM2984 643v468h468v-468h-468zM643 1228v468h468v-468h-468zM2984 1228v468h468v-468h-468zM643 1813v469h468v-469h-468zM2984 1813v469h468v-469h-468zM643 2399v468h468v-468h-468zM1228 2399v468h468v-468h-468zM1813 2399v468h469v-468
h-469zM2399 2399v468h468v-468h-468zM2984 2399v468h468v-468h-468zM643 2984v468h468v-468h-468zM2984 2984v468h468v-468h-468zM643 3569v468h468v-468h-468zM2984 3569v468h468v-468h-468zM643 4154v468h468v-468h-468zM2984 4154v468h468v-468h-468z" />
    <glyph glyph-name="I" unicode="I" horiz-adv-x="4095" 
d="M1228 643v468h468v-468h-468zM1813 643v468h469v-468h-469zM2399 643v468h468v-468h-468zM1813 1228v468h469v-468h-469zM1813 1813v469h469v-469h-469zM1813 2399v468h469v-468h-469zM1813 2984v468h469v-468h-469zM1813 3569v468h469v-468h-469zM1228 4154v468h468
v-468h-468zM1813 4154v468h469v-468h-469zM2399 4154v468h468v-468h-468z" />
    <glyph glyph-name="J" unicode="J" 
d="M1228 643v468h468v-468h-468zM1813 643v468h469v-468h-469zM643 1228v468h468v-468h-468zM2399 1228v468h468v-468h-468zM2399 1813v469h468v-469h-468zM2399 2399v468h468v-468h-468zM2399 2984v468h468v-468h-468zM2399 3569v468h468v-468h-468zM1813 4154v468h469
v-468h-469zM2399 4154v468h468v-468h-468zM2984 4154v468h468v-468h-468z" />
    <glyph glyph-name="K" unicode="K" 
d="M643 643v468h468v-468h-468zM2984 643v468h468v-468h-468zM643 1228v468h468v-468h-468zM2399 1228v468h468v-468h-468zM643 1813v469h468v-469h-468zM1813 1813v469h469v-469h-469zM643 2399v468h468v-468h-468zM1228 2399v468h468v-468h-468zM643 2984v468h468v-468
h-468zM1813 2984v468h469v-468h-469zM643 3569v468h468v-468h-468zM2399 3569v468h468v-468h-468zM643 4154v468h468v-468h-468zM2984 4154v468h468v-468h-468z" />
    <glyph glyph-name="L" unicode="L" 
d="M643 643v468h468v-468h-468zM1228 643v468h468v-468h-468zM1813 643v468h469v-468h-469zM2399 643v468h468v-468h-468zM2984 643v468h468v-468h-468zM643 1228v468h468v-468h-468zM643 1813v469h468v-469h-468zM643 2399v468h468v-468h-468zM643 2984v468h468v-468h-468z
M643 3569v468h468v-468h-468zM643 4154v468h468v-468h-468z" />
    <glyph glyph-name="M" unicode="M" 
d="M643 643v468h468v-468h-468zM2984 643v468h468v-468h-468zM643 1228v468h468v-468h-468zM2984 1228v468h468v-468h-468zM643 1813v469h468v-469h-468zM2984 1813v469h468v-469h-468zM643 2399v468h468v-468h-468zM1813 2399v468h469v-468h-469zM2984 2399v468h468v-468
h-468zM643 2984v468h468v-468h-468zM1813 2984v468h469v-468h-469zM2984 2984v468h468v-468h-468zM643 3569v468h468v-468h-468zM1228 3569v468h468v-468h-468zM2399 3569v468h468v-468h-468zM2984 3569v468h468v-468h-468zM643 4154v468h468v-468h-468zM2984 4154v468h468
v-468h-468z" />
    <glyph glyph-name="N" unicode="N" 
d="M643 643v468h468v-468h-468zM2984 643v468h468v-468h-468zM643 1228v468h468v-468h-468zM2984 1228v468h468v-468h-468zM643 1813v469h468v-469h-468zM2399 1813v469h468v-469h-468zM2984 1813v469h468v-469h-468zM643 2399v468h468v-468h-468zM1813 2399v468h469v-468
h-469zM2984 2399v468h468v-468h-468zM643 2984v468h468v-468h-468zM1228 2984v468h468v-468h-468zM2984 2984v468h468v-468h-468zM643 3569v468h468v-468h-468zM2984 3569v468h468v-468h-468zM643 4154v468h468v-468h-468zM2984 4154v468h468v-468h-468z" />
    <glyph glyph-name="O" unicode="O" 
d="M1228 643v468h468v-468h-468zM1813 643v468h469v-468h-469zM2399 643v468h468v-468h-468zM643 1228v468h468v-468h-468zM2984 1228v468h468v-468h-468zM643 1813v469h468v-469h-468zM2984 1813v469h468v-469h-468zM643 2399v468h468v-468h-468zM2984 2399v468h468v-468
h-468zM643 2984v468h468v-468h-468zM2984 2984v468h468v-468h-468zM643 3569v468h468v-468h-468zM2984 3569v468h468v-468h-468zM1228 4154v468h468v-468h-468zM1813 4154v468h469v-468h-469zM2399 4154v468h468v-468h-468z" />
    <glyph glyph-name="P" unicode="P" 
d="M643 643v468h468v-468h-468zM643 1228v468h468v-468h-468zM643 1813v469h468v-469h-468zM643 2399v468h468v-468h-468zM1228 2399v468h468v-468h-468zM1813 2399v468h469v-468h-469zM2399 2399v468h468v-468h-468zM643 2984v468h468v-468h-468zM2984 2984v468h468v-468
h-468zM643 3569v468h468v-468h-468zM2984 3569v468h468v-468h-468zM643 4154v468h468v-468h-468zM1228 4154v468h468v-468h-468zM1813 4154v468h469v-468h-469zM2399 4154v468h468v-468h-468z" />
    <glyph glyph-name="Q" unicode="Q" 
d="M1228 643v468h468v-468h-468zM1813 643v468h469v-468h-469zM2984 643v468h468v-468h-468zM643 1228v468h468v-468h-468zM2399 1228v468h468v-468h-468zM643 1813v469h468v-469h-468zM1813 1813v469h469v-469h-469zM2984 1813v469h468v-469h-468zM643 2399v468h468v-468
h-468zM2984 2399v468h468v-468h-468zM643 2984v468h468v-468h-468zM2984 2984v468h468v-468h-468zM643 3569v468h468v-468h-468zM2984 3569v468h468v-468h-468zM1228 4154v468h468v-468h-468zM1813 4154v468h469v-468h-469zM2399 4154v468h468v-468h-468z" />
    <glyph glyph-name="R" unicode="R" 
d="M643 643v468h468v-468h-468zM2984 643v468h468v-468h-468zM643 1228v468h468v-468h-468zM2399 1228v468h468v-468h-468zM643 1813v469h468v-469h-468zM1813 1813v469h469v-469h-469zM643 2399v468h468v-468h-468zM1228 2399v468h468v-468h-468zM1813 2399v468h469v-468
h-469zM2399 2399v468h468v-468h-468zM643 2984v468h468v-468h-468zM2984 2984v468h468v-468h-468zM643 3569v468h468v-468h-468zM2984 3569v468h468v-468h-468zM643 4154v468h468v-468h-468zM1228 4154v468h468v-468h-468zM1813 4154v468h469v-468h-469zM2399 4154v468h468
v-468h-468z" />
    <glyph glyph-name="S" unicode="S" 
d="M1228 643v468h468v-468h-468zM1813 643v468h469v-468h-469zM2399 643v468h468v-468h-468zM643 1228v468h468v-468h-468zM2984 1228v468h468v-468h-468zM2984 1813v469h468v-469h-468zM1228 2399v468h468v-468h-468zM1813 2399v468h469v-468h-469zM2399 2399v468h468v-468
h-468zM643 2984v468h468v-468h-468zM643 3569v468h468v-468h-468zM2984 3569v468h468v-468h-468zM1228 4154v468h468v-468h-468zM1813 4154v468h469v-468h-469zM2399 4154v468h468v-468h-468z" />
    <glyph glyph-name="T" unicode="T" 
d="M1813 643v468h469v-468h-469zM1813 1228v468h469v-468h-469zM1813 1813v469h469v-469h-469zM1813 2399v468h469v-468h-469zM1813 2984v468h469v-468h-469zM1813 3569v468h469v-468h-469zM643 4154v468h468v-468h-468zM1228 4154v468h468v-468h-468zM1813 4154v468h469
v-468h-469zM2399 4154v468h468v-468h-468zM2984 4154v468h468v-468h-468z" />
    <glyph glyph-name="U" unicode="U" 
d="M1228 643v468h468v-468h-468zM1813 643v468h469v-468h-469zM2399 643v468h468v-468h-468zM643 1228v468h468v-468h-468zM2984 1228v468h468v-468h-468zM643 1813v469h468v-469h-468zM2984 1813v469h468v-469h-468zM643 2399v468h468v-468h-468zM2984 2399v468h468v-468
h-468zM643 2984v468h468v-468h-468zM2984 2984v468h468v-468h-468zM643 3569v468h468v-468h-468zM2984 3569v468h468v-468h-468zM643 4154v468h468v-468h-468zM2984 4154v468h468v-468h-468z" />
    <glyph glyph-name="V" unicode="V" 
d="M1813 643v468h469v-468h-469zM1228 1228v468h468v-468h-468zM2399 1228v468h468v-468h-468zM643 1813v469h468v-469h-468zM2984 1813v469h468v-469h-468zM643 2399v468h468v-468h-468zM2984 2399v468h468v-468h-468zM643 2984v468h468v-468h-468zM2984 2984v468h468v-468
h-468zM643 3569v468h468v-468h-468zM2984 3569v468h468v-468h-468zM643 4154v468h468v-468h-468zM2984 4154v468h468v-468h-468z" />
    <glyph glyph-name="W" unicode="W" 
d="M1228 643v468h468v-468h-468zM2399 643v468h468v-468h-468zM643 1228v468h468v-468h-468zM1813 1228v468h469v-468h-469zM2984 1228v468h468v-468h-468zM643 1813v469h468v-469h-468zM1813 1813v469h469v-469h-469zM2984 1813v469h468v-469h-468zM643 2399v468h468v-468
h-468zM1813 2399v468h469v-468h-469zM2984 2399v468h468v-468h-468zM643 2984v468h468v-468h-468zM2984 2984v468h468v-468h-468zM643 3569v468h468v-468h-468zM2984 3569v468h468v-468h-468zM643 4154v468h468v-468h-468zM2984 4154v468h468v-468h-468z" />
    <glyph glyph-name="X" unicode="X" 
d="M643 643v468h468v-468h-468zM2984 643v468h468v-468h-468zM643 1228v468h468v-468h-468zM2984 1228v468h468v-468h-468zM1228 1813v469h468v-469h-468zM2399 1813v469h468v-469h-468zM1813 2399v468h469v-468h-469zM1228 2984v468h468v-468h-468zM2399 2984v468h468v-468
h-468zM643 3569v468h468v-468h-468zM2984 3569v468h468v-468h-468zM643 4154v468h468v-468h-468zM2984 4154v468h468v-468h-468z" />
    <glyph glyph-name="Y" unicode="Y" 
d="M1813 643v468h469v-468h-469zM1813 1228v468h469v-468h-469zM1813 1813v469h469v-469h-469zM1228 2399v468h468v-468h-468zM2399 2399v468h468v-468h-468zM643 2984v468h468v-468h-468zM2984 2984v468h468v-468h-468zM643 3569v468h468v-468h-468zM2984 3569v468h468
v-468h-468zM643 4154v468h468v-468h-468zM2984 4154v468h468v-468h-468z" />
    <glyph glyph-name="Z" unicode="Z" 
d="M643 643v468h468v-468h-468zM1228 643v468h468v-468h-468zM1813 643v468h469v-468h-469zM2399 643v468h468v-468h-468zM2984 643v468h468v-468h-468zM643 1228v468h468v-468h-468zM1228 1813v469h468v-469h-468zM1813 2399v468h469v-468h-469zM2399 2984v468h468v-468
h-468zM2984 3569v468h468v-468h-468zM643 4154v468h468v-468h-468zM1228 4154v468h468v-468h-468zM1813 4154v468h469v-468h-469zM2399 4154v468h468v-468h-468zM2984 4154v468h468v-468h-468z" />
    <glyph glyph-name="bracketleft" unicode="[" horiz-adv-x="4095" 
d="M1228 643v468h468v-468h-468zM1813 643v468h469v-468h-469zM2399 643v468h468v-468h-468zM1228 1228v468h468v-468h-468zM1228 1813v469h468v-469h-468zM1228 2399v468h468v-468h-468zM1228 2984v468h468v-468h-468zM1228 3569v468h468v-468h-468zM1228 4154v468h468
v-468h-468zM1813 4154v468h469v-468h-469zM2399 4154v468h468v-468h-468z" />
    <glyph glyph-name="backslash" unicode="\" 
d="M2984 1228v468h468v-468h-468zM2399 1813v469h468v-469h-468zM1813 2399v468h469v-468h-469zM1228 2984v468h468v-468h-468zM643 3569v468h468v-468h-468z" />
    <glyph glyph-name="bracketright" unicode="]" horiz-adv-x="4095" 
d="M1228 643v468h468v-468h-468zM1813 643v468h469v-468h-469zM2399 643v468h468v-468h-468zM2399 1228v468h468v-468h-468zM2399 1813v469h468v-469h-468zM2399 2399v468h468v-468h-468zM2399 2984v468h468v-468h-468zM2399 3569v468h468v-468h-468zM1228 4154v468h468
v-468h-468zM1813 4154v468h469v-468h-469zM2399 4154v468h468v-468h-468z" />
    <glyph glyph-name="asciicircum" unicode="^" horiz-adv-x="4095" 
d="M1228 2984v468h468v-468h-468zM2399 2984v468h468v-468h-468zM1813 3569v468h469v-468h-469z" />
    <glyph glyph-name="underscore" unicode="_" 
d="M643 643v468h468v-468h-468zM1228 643v468h468v-468h-468zM1813 643v468h469v-468h-469zM2399 643v468h468v-468h-468zM2984 643v468h468v-468h-468z" />
    <glyph glyph-name="grave" unicode="`" horiz-adv-x="2925" 
d="M1228 3569v468h468v-468h-468zM643 4154v468h468v-468h-468z" />
    <glyph glyph-name="a" unicode="a" 
d="M1228 643v468h468v-468h-468zM1813 643v468h469v-468h-469zM2399 643v468h468v-468h-468zM2984 643v468h468v-468h-468zM643 1228v468h468v-468h-468zM2984 1228v468h468v-468h-468zM1228 1813v469h468v-469h-468zM1813 1813v469h469v-469h-469zM2399 1813v469h468v-469
h-468zM2984 1813v469h468v-469h-468zM2984 2399v468h468v-468h-468zM1228 2984v468h468v-468h-468zM1813 2984v468h469v-468h-469zM2399 2984v468h468v-468h-468z" />
    <glyph glyph-name="b" unicode="b" 
d="M643 643v468h468v-468h-468zM1228 643v468h468v-468h-468zM1813 643v468h469v-468h-469zM2399 643v468h468v-468h-468zM643 1228v468h468v-468h-468zM2984 1228v468h468v-468h-468zM643 1813v469h468v-469h-468zM2984 1813v469h468v-469h-468zM643 2399v468h468v-468
h-468zM1228 2399v468h468v-468h-468zM2984 2399v468h468v-468h-468zM643 2984v468h468v-468h-468zM1813 2984v468h469v-468h-469zM2399 2984v468h468v-468h-468zM643 3569v468h468v-468h-468zM643 4154v468h468v-468h-468z" />
    <glyph glyph-name="c" unicode="c" 
d="M1228 643v468h468v-468h-468zM1813 643v468h469v-468h-469zM2399 643v468h468v-468h-468zM643 1228v468h468v-468h-468zM2984 1228v468h468v-468h-468zM643 1813v469h468v-469h-468zM643 2399v468h468v-468h-468zM1228 2984v468h468v-468h-468zM1813 2984v468h469v-468
h-469zM2399 2984v468h468v-468h-468z" />
    <glyph glyph-name="d" unicode="d" 
d="M1228 643v468h468v-468h-468zM1813 643v468h469v-468h-469zM2399 643v468h468v-468h-468zM2984 643v468h468v-468h-468zM643 1228v468h468v-468h-468zM2984 1228v468h468v-468h-468zM643 1813v469h468v-469h-468zM2984 1813v469h468v-469h-468zM643 2399v468h468v-468
h-468zM2399 2399v468h468v-468h-468zM2984 2399v468h468v-468h-468zM1228 2984v468h468v-468h-468zM1813 2984v468h469v-468h-469zM2984 2984v468h468v-468h-468zM2984 3569v468h468v-468h-468zM2984 4154v468h468v-468h-468z" />
    <glyph glyph-name="e" unicode="e" 
d="M1228 643v468h468v-468h-468zM1813 643v468h469v-468h-469zM2399 643v468h468v-468h-468zM643 1228v468h468v-468h-468zM643 1813v469h468v-469h-468zM1228 1813v469h468v-469h-468zM1813 1813v469h469v-469h-469zM2399 1813v469h468v-469h-468zM2984 1813v469h468v-469
h-468zM643 2399v468h468v-468h-468zM2984 2399v468h468v-468h-468zM1228 2984v468h468v-468h-468zM1813 2984v468h469v-468h-469zM2399 2984v468h468v-468h-468z" />
    <glyph glyph-name="f" unicode="f" 
d="M1813 643v468h469v-468h-469zM1813 1228v468h469v-468h-469zM1813 1813v469h469v-469h-469zM1228 2399v468h468v-468h-468zM1813 2399v468h469v-468h-469zM2399 2399v468h468v-468h-468zM1813 2984v468h469v-468h-469zM1813 3569v468h469v-468h-469zM2984 3569v468h468
v-468h-468zM2399 4154v468h468v-468h-468z" />
    <glyph glyph-name="g" unicode="g" 
d="M1228 643v468h468v-468h-468zM1813 643v468h469v-468h-469zM2399 643v468h468v-468h-468zM2984 1228v468h468v-468h-468zM1228 1813v469h468v-469h-468zM1813 1813v469h469v-469h-469zM2399 1813v469h468v-469h-468zM2984 1813v469h468v-469h-468zM643 2399v468h468v-468
h-468zM2984 2399v468h468v-468h-468zM1228 2984v468h468v-468h-468zM1813 2984v468h469v-468h-469zM2399 2984v468h468v-468h-468zM2984 2984v468h468v-468h-468z" />
    <glyph glyph-name="h" unicode="h" 
d="M643 643v468h468v-468h-468zM2984 643v468h468v-468h-468zM643 1228v468h468v-468h-468zM2984 1228v468h468v-468h-468zM643 1813v469h468v-469h-468zM1228 1813v469h468v-469h-468zM2984 1813v469h468v-469h-468zM643 2399v468h468v-468h-468zM1813 2399v468h469v-468
h-469zM2399 2399v468h468v-468h-468zM643 2984v468h468v-468h-468zM643 3569v468h468v-468h-468zM643 4154v468h468v-468h-468z" />
    <glyph glyph-name="i" unicode="i" horiz-adv-x="4095" 
d="M1228 643v468h468v-468h-468zM1813 643v468h469v-468h-469zM2399 643v468h468v-468h-468zM1813 1228v468h469v-468h-469zM1813 1813v469h469v-469h-469zM1813 2399v468h469v-468h-469zM1228 2984v468h468v-468h-468zM1813 2984v468h469v-468h-469zM1813 4154v468h469
v-468h-469z" />
    <glyph glyph-name="j" unicode="j" horiz-adv-x="4095" 
d="M1228 643v468h468v-468h-468zM1813 643v468h469v-468h-469zM643 1228v468h468v-468h-468zM2399 1228v468h468v-468h-468zM2399 1813v469h468v-469h-468zM2399 2399v468h468v-468h-468zM1813 2984v468h469v-468h-469zM2399 2984v468h468v-468h-468zM2399 4154v468h468
v-468h-468z" />
    <glyph glyph-name="k" unicode="k" 
d="M1228 643v468h468v-468h-468zM2984 643v468h468v-468h-468zM1228 1228v468h468v-468h-468zM2399 1228v468h468v-468h-468zM1228 1813v469h468v-469h-468zM1813 1813v469h469v-469h-469zM1228 2399v468h468v-468h-468zM2399 2399v468h468v-468h-468zM1228 2984v468h468
v-468h-468zM2984 2984v468h468v-468h-468zM1228 3569v468h468v-468h-468zM1228 4154v468h468v-468h-468z" />
    <glyph glyph-name="l" unicode="l" horiz-adv-x="4095" 
d="M1228 643v468h468v-468h-468zM1813 643v468h469v-468h-469zM2399 643v468h468v-468h-468zM1813 1228v468h469v-468h-469zM1813 1813v469h469v-469h-469zM1813 2399v468h469v-468h-469zM1813 2984v468h469v-468h-469zM1813 3569v468h469v-468h-469zM1228 4154v468h468
v-468h-468zM1813 4154v468h469v-468h-469z" />
    <glyph glyph-name="m" unicode="m" 
d="M643 643v468h468v-468h-468zM1813 643v468h469v-468h-469zM2984 643v468h468v-468h-468zM643 1228v468h468v-468h-468zM1813 1228v468h469v-468h-469zM2984 1228v468h468v-468h-468zM643 1813v469h468v-469h-468zM1813 1813v469h469v-469h-469zM2984 1813v469h468v-469
h-468zM643 2399v468h468v-468h-468zM1813 2399v468h469v-468h-469zM2984 2399v468h468v-468h-468zM643 2984v468h468v-468h-468zM1228 2984v468h468v-468h-468zM2399 2984v468h468v-468h-468z" />
    <glyph glyph-name="n" unicode="n" 
d="M643 643v468h468v-468h-468zM2984 643v468h468v-468h-468zM643 1228v468h468v-468h-468zM2984 1228v468h468v-468h-468zM643 1813v469h468v-469h-468zM2984 1813v469h468v-469h-468zM643 2399v468h468v-468h-468zM1228 2399v468h468v-468h-468zM2984 2399v468h468v-468
h-468zM643 2984v468h468v-468h-468zM1813 2984v468h469v-468h-469zM2399 2984v468h468v-468h-468z" />
    <glyph glyph-name="o" unicode="o" 
d="M1228 643v468h468v-468h-468zM1813 643v468h469v-468h-469zM2399 643v468h468v-468h-468zM643 1228v468h468v-468h-468zM2984 1228v468h468v-468h-468zM643 1813v469h468v-469h-468zM2984 1813v469h468v-469h-468zM643 2399v468h468v-468h-468zM2984 2399v468h468v-468
h-468zM1228 2984v468h468v-468h-468zM1813 2984v468h469v-468h-469zM2399 2984v468h468v-468h-468z" />
    <glyph glyph-name="p" unicode="p" 
d="M643 643v468h468v-468h-468zM643 1228v468h468v-468h-468zM643 1813v469h468v-469h-468zM1228 1813v469h468v-469h-468zM1813 1813v469h469v-469h-469zM2399 1813v469h468v-469h-468zM643 2399v468h468v-468h-468zM2984 2399v468h468v-468h-468zM643 2984v468h468v-468
h-468zM1228 2984v468h468v-468h-468zM1813 2984v468h469v-468h-469zM2399 2984v468h468v-468h-468z" />
    <glyph glyph-name="q" unicode="q" 
d="M2984 643v468h468v-468h-468zM2984 1228v468h468v-468h-468zM1228 1813v469h468v-469h-468zM1813 1813v469h469v-469h-469zM2399 1813v469h468v-469h-468zM2984 1813v469h468v-469h-468zM643 2399v468h468v-468h-468zM2984 2399v468h468v-468h-468zM1228 2984v468h468
v-468h-468zM1813 2984v468h469v-468h-469zM2399 2984v468h468v-468h-468zM2984 2984v468h468v-468h-468z" />
    <glyph glyph-name="r" unicode="r" 
d="M643 643v468h468v-468h-468zM643 1228v468h468v-468h-468zM643 1813v469h468v-469h-468zM643 2399v468h468v-468h-468zM1228 2399v468h468v-468h-468zM2984 2399v468h468v-468h-468zM643 2984v468h468v-468h-468zM1813 2984v468h469v-468h-469zM2399 2984v468h468v-468
h-468z" />
    <glyph glyph-name="s" unicode="s" 
d="M643 643v468h468v-468h-468zM1228 643v468h468v-468h-468zM1813 643v468h469v-468h-469zM2399 643v468h468v-468h-468zM2984 1228v468h468v-468h-468zM1228 1813v469h468v-469h-468zM1813 1813v469h469v-469h-469zM2399 1813v469h468v-469h-468zM643 2399v468h468v-468
h-468zM1228 2984v468h468v-468h-468zM1813 2984v468h469v-468h-469zM2399 2984v468h468v-468h-468zM2984 2984v468h468v-468h-468z" />
    <glyph glyph-name="t" unicode="t" 
d="M1813 643v468h469v-468h-469zM2399 643v468h468v-468h-468zM1228 1228v468h468v-468h-468zM2984 1228v468h468v-468h-468zM1228 1813v469h468v-469h-468zM1228 2399v468h468v-468h-468zM643 2984v468h468v-468h-468zM1228 2984v468h468v-468h-468zM1813 2984v468h469
v-468h-469zM1228 3569v468h468v-468h-468z" />
    <glyph glyph-name="u" unicode="u" 
d="M1228 643v468h468v-468h-468zM1813 643v468h469v-468h-469zM2399 643v468h468v-468h-468zM643 1228v468h468v-468h-468zM2984 1228v468h468v-468h-468zM643 1813v469h468v-469h-468zM2984 1813v469h468v-469h-468zM643 2399v468h468v-468h-468zM2984 2399v468h468v-468
h-468zM643 2984v468h468v-468h-468zM2984 2984v468h468v-468h-468z" />
    <glyph glyph-name="v" unicode="v" 
d="M1813 643v468h469v-468h-469zM1228 1228v468h468v-468h-468zM2399 1228v468h468v-468h-468zM643 1813v469h468v-469h-468zM2984 1813v469h468v-469h-468zM643 2399v468h468v-468h-468zM2984 2399v468h468v-468h-468zM643 2984v468h468v-468h-468zM2984 2984v468h468v-468
h-468z" />
    <glyph glyph-name="w" unicode="w" 
d="M1228 643v468h468v-468h-468zM2399 643v468h468v-468h-468zM643 1228v468h468v-468h-468zM1813 1228v468h469v-468h-469zM2984 1228v468h468v-468h-468zM643 1813v469h468v-469h-468zM1813 1813v469h469v-469h-469zM2984 1813v469h468v-469h-468zM643 2399v468h468v-468
h-468zM2984 2399v468h468v-468h-468zM643 2984v468h468v-468h-468zM2984 2984v468h468v-468h-468z" />
    <glyph glyph-name="x" unicode="x" 
d="M643 643v468h468v-468h-468zM2984 643v468h468v-468h-468zM1228 1228v468h468v-468h-468zM2399 1228v468h468v-468h-468zM1813 1813v469h469v-469h-469zM1228 2399v468h468v-468h-468zM2399 2399v468h468v-468h-468zM643 2984v468h468v-468h-468zM2984 2984v468h468v-468
h-468z" />
    <glyph glyph-name="y" unicode="y" 
d="M643 643v468h468v-468h-468zM1228 1228v468h468v-468h-468zM1813 1813v469h469v-469h-469zM1228 2399v468h468v-468h-468zM2399 2399v468h468v-468h-468zM643 2984v468h468v-468h-468zM2984 2984v468h468v-468h-468z" />
    <glyph glyph-name="z" unicode="z" 
d="M643 643v468h468v-468h-468zM1228 643v468h468v-468h-468zM1813 643v468h469v-468h-469zM2399 643v468h468v-468h-468zM2984 643v468h468v-468h-468zM1228 1228v468h468v-468h-468zM1813 1813v469h469v-469h-469zM2399 2399v468h468v-468h-468zM643 2984v468h468v-468
h-468zM1228 2984v468h468v-468h-468zM1813 2984v468h469v-468h-469zM2399 2984v468h468v-468h-468zM2984 2984v468h468v-468h-468z" />
    <glyph glyph-name="bar" unicode="|" horiz-adv-x="3510" 
d="M1813 643v468h469v-468h-469zM1813 1228v468h469v-468h-469zM1813 1813v469h469v-469h-469zM1813 2399v468h469v-468h-469zM1813 2984v468h469v-468h-469zM1813 3569v468h469v-468h-469zM1813 4154v468h469v-468h-469z" />
    <glyph glyph-name="uni00AD" unicode="&#xad;" horiz-adv-x="3510" 
d="M643 1813v469h468v-469h-468zM1228 1813v469h468v-469h-468zM1813 1813v469h469v-469h-469z" />
    <glyph glyph-name="ordmasculine" unicode="&#xba;" horiz-adv-x="2925" 
d="M58 2399v468h468v-468h-468zM643 2399v468h468v-468h-468zM1228 2399v468h468v-468h-468zM58 2984v468h468v-468h-468zM1228 2984v468h468v-468h-468zM58 3569v468h468v-468h-468zM643 3569v468h468v-468h-468zM1228 3569v468h468v-468h-468z" />
    <glyph glyph-name="quoteleft" unicode="&#x2018;" horiz-adv-x="2925" 
d="M643 2984v468h468v-468h-468zM1228 2984v468h468v-468h-468zM643 3569v468h468v-468h-468zM1228 4154v468h468v-468h-468z" />
    <glyph glyph-name="quoteright" unicode="&#x2019;" horiz-adv-x="2925" 
d="M643 2984v468h468v-468h-468zM1228 3569v468h468v-468h-468zM643 4154v468h468v-468h-468zM1228 4154v468h468v-468h-468z" />
    <glyph glyph-name="quotedblleft" unicode="&#x201c;" 
d="M643 2984v468h468v-468h-468zM1228 2984v468h468v-468h-468zM2399 2984v468h468v-468h-468zM2984 2984v468h468v-468h-468zM643 3569v468h468v-468h-468zM2399 3569v468h468v-468h-468zM1228 4154v468h468v-468h-468zM2984 4154v468h468v-468h-468z" />
    <glyph glyph-name="quotedblright" unicode="&#x201d;" 
d="M643 2984v468h468v-468h-468zM1228 2984v468h468v-468h-468zM2399 2984v468h468v-468h-468zM2984 2984v468h468v-468h-468zM1228 3569v468h468v-468h-468zM2984 3569v468h468v-468h-468zM643 4154v468h468v-468h-468zM2399 4154v468h468v-468h-468z" />
  </font>
</defs>
</svg>
